<svg xmlns="http://www.w3.org/2000/svg" height="800" width="1200" version="1.0" viewBox="-106.29915 -146.6305 921.2593 879.783"><path d="M516.566 0L322.109 195.47H157.118L0 352.587h192.208v195.47l195.47-195.47h163.866L708.66 195.47H516.566zm-39.589 94.923V195.47H376.318zM172.976 235.058h109.656l-78.053 77.94H95.036zm166.115 0h109.657l-79.178 77.94H260.026zm164.991 0h109.656l-78.052 77.94H426.142zM332.343 351.463L231.797 452.009v-99.422zm54.21 118.766v116.292h32.84c34.999 0 66.694-11.232 66.694-57.584 0-47.497-31.695-58.708-66.693-58.708zm23.73 17.995h13.61c19.269 0 38.35 14.673 38.35 40.713 0 24.895-19.081 39.59-38.35 39.59h-13.61zm237.533-18.22c-2.734-.074-5.415.082-8.097.225H597.88v116.292h23.731v-42.963h16.983c10.103 0 13.537 3.422 16.87 12.484l12.596 30.479h28.23l-19.232-40.6c-3.437-6.771-4.61-9.048-10.235-12.485 0 0 20.378-5.626 19.232-28.23 0-27.706-19.1-34.68-38.239-35.202zm-26.205 19.345h15.858c12.395 0 22.577 3.462 23.618 15.858v3.261c-1.041 12.5-11.223 15.858-23.618 15.858h-15.858zm-111.82 97.173h68.955v-19.165h-45.31v-97.183H509.79z" fill="#231f20" fill-rule="evenodd"/></svg>